<?xml version="1.0" encoding="UTF-8"?>
<svg xmlns="http://www.w3.org/2000/svg" version="1.1" xmlns:xlink="http://www.w3.org/1999/xlink" xmlns:svgjs="http://svgjs.com/svgjs" width="512" height="512" x="0" y="0" viewBox="0 0 48 48" style="enable-background:new 0 0 512 512" xml:space="preserve" class=""><g transform="matrix(1.0999999999999994,0,0,1.0999999999999994,-2.3999999046325584,-2.399999999999988)"><path d="M40.334 40H7.666a3.666 3.666 0 0 1-2.199-6.6l1.647-1.235a2.987 2.987 0 0 0 1.16-1.913l2.067-12.544a13.822 13.822 0 0 1 27.32.01l2.065 12.534a2.987 2.987 0 0 0 1.16 1.913l1.647 1.235a3.666 3.666 0 0 1-2.2 6.6ZM24 8a11.757 11.757 0 0 0-11.685 10.023l-2.068 12.554a4.979 4.979 0 0 1-1.933 3.187L6.666 35a1.667 1.667 0 0 0 1 3h32.667a1.666 1.666 0 0 0 1-3l-1.648-1.236a4.979 4.979 0 0 1-1.933-3.187l-2.068-12.544A11.759 11.759 0 0 0 24.002 8Z" fill="#ffffff" data-original="#000000" opacity="1" class=""></path><path d="M27 8.36a1 1 0 0 1-1-1V6a2 2 0 0 0-4 0v1.36a1 1 0 0 1-2 0V6a4 4 0 0 1 8 0v1.36a1 1 0 0 1-1 1ZM24 46a7.008 7.008 0 0 1-7-7 1 1 0 0 1 2 0 5 5 0 0 0 10 0 1 1 0 0 1 2 0 7.008 7.008 0 0 1-7 7Z" fill="#ffffff" data-original="#000000" opacity="1" class=""></path></g></svg>