<?xml version="1.0" encoding="UTF-8"?>
<svg xmlns="http://www.w3.org/2000/svg" version="1.1" xmlns:xlink="http://www.w3.org/1999/xlink" xmlns:svgjs="http://svgjs.com/svgjs" width="512" height="512" x="0" y="0" viewBox="0 0 128 128" style="enable-background:new 0 0 512 512" xml:space="preserve" class=""><g><path d="M40.846 44.923h-5.219a2 2 0 0 0-2 2v5.219a2 2 0 0 0 2 2h5.219a2 2 0 0 0 2-2v-5.219a2 2 0 0 0-2-2zM40.846 64.78h-5.219a2 2 0 0 0-2 2v5.219a2 2 0 0 0 2 2h5.219a2 2 0 0 0 2-2V66.78a2 2 0 0 0-2-2zM42.242 85.207a1.99 1.99 0 0 0-1.429-.604h-5.219a2 2 0 0 0-2 2v5.219c0 .561.232 1.066.604 1.429a1.99 1.99 0 0 0 1.429.604h5.219a2 2 0 0 0 2-2v-5.219c0-.56-.232-1.066-.604-1.429zM75.307 84.603a2 2 0 0 0-2 2v5.219a2 2 0 0 0 2 2h5.219a2 2 0 0 0 2-2v-5.219a2 2 0 0 0-2-2zM60.67 84.603h-5.22a2 2 0 0 0-2 2v5.219a2 2 0 0 0 2 2h5.219a2 2 0 0 0 2-2v-5.219a2 2 0 0 0-1.999-2z" fill="#ffffff" data-original="#000000" opacity="1"></path><path d="M106.14 22.35a4.942 4.942 0 0 0-3.42-1.35c-1.15 0-2.31.4-3.25 1.2-.28.23-3.29 2.9-7.33 6.48a11.1 11.1 0 0 0-3.96-.74H31.43c-6.15 0-11.15 5.01-11.15 11.16v56.75c0 6.15 5 11.15 11.15 11.15h56.75c6.15 0 11.16-5 11.16-11.15V39.1c0-.17-.02-.33-.03-.5 4-5.17 7.16-9.27 7.41-9.6a5.002 5.002 0 0 0-.58-6.65zm-11.8 73.5c0 3.39-2.77 6.15-6.16 6.15H31.43c-3.39 0-6.15-2.76-6.15-6.15V39.1c0-3.39 2.76-6.16 6.15-6.16h55.91c-8.65 7.67-18.73 16.62-18.73 16.62l-.01.01c-1.9.25-3.74.95-5.3 2.08-2.72 1.96-4.21 4.87-4.2 8.19.01 5.65-4.86 10.05-5.07 10.24-.74.66-1.02 1.7-.71 2.65.31.94 1.15 1.61 2.14 1.7.04.01 2.61.23 5.73.23 2.19 0 4.65-.11 6.7-.47.07-.02.13-.03.2-.05 6.46-1.69 10.7-4.54 12.58-8.47.66-1.36.99-2.82 1.03-4.31l.01-.01 12.63-16.32zM76.09 58.42c.46 1.01 1.07 3.02.08 5.09-1.2 2.49-4.39 4.49-9.25 5.77-1.78.31-4.02.38-6 .37 1.64-2.45 3.19-5.84 3.18-9.82 0-2.14 1.16-3.43 2.13-4.13 1.66-1.2 3.97-1.57 5.87-.93l.21.06c.9.21 2.93 1.58 3.78 3.59zm4.02-3.11c-1.29-2.24-3.35-3.95-5.21-4.82 4.55-4.26 27.58-24.28 27.8-24.46-.22.3-18.79 24.65-22.59 29.28z" fill="#ffffff" data-original="#000000" opacity="1"></path></g></svg>