<?xml version="1.0" encoding="UTF-8"?>
<svg xmlns="http://www.w3.org/2000/svg" version="1.1" xmlns:xlink="http://www.w3.org/1999/xlink" xmlns:svgjs="http://svgjs.com/svgjs" width="512" height="512" x="0" y="0" viewBox="0 0 144.083 144" style="enable-background:new 0 0 512 512" xml:space="preserve" class=""><g transform="matrix(1.1999999999999997,0,0,1.1999999999999997,-14.408132171630825,-14.399900054931635)"><path d="M118.254 38.359c0-12.242-9.96-22.201-22.203-22.201-12.242 0-22.201 9.959-22.201 22.201 0 .071.011.146.012.219-1.12-.09-2.241-.14-3.361-.14-20.97 0-38.874 14.3-43.54 34.774-2.653 11.641-.614 23.617 5.743 33.723 6.355 10.105 16.268 17.131 27.908 19.781a44.854 44.854 0 0 0 9.964 1.125c20.971 0 38.875-14.297 43.539-34.77 2.635-11.557.64-23.442-5.609-33.502 4.977-7.393 9.748-15.222 9.748-21.21zM96.051 22.158c8.935 0 16.203 7.268 16.203 16.201 0 5.138-6.214 14.215-11.208 21.509-2.029 2.964-3.708 5.441-4.995 7.555-1.286-2.113-2.966-4.591-4.994-7.555-4.993-7.294-11.207-16.371-11.207-21.509 0-8.933 7.268-16.201 16.201-16.201zm-44.024 86.363c-.766 1.193-3.493 4.356-4.826 5.496a38.667 38.667 0 0 1-9.418-10.275c-4.961-7.889-6.874-17.092-5.521-26.213 2.306.64 4.605 1.547 5.581 2.195-.031.215-.064.43-.098.646-.382 2.473-.958 6.211 2.129 8.457 2.62 1.902 5.08.232 6.217-.695.405.32.839.641 1.284.969.721.531 1.977 1.457 2.491 2.047-.15.506-.36 1.092-.565 1.664-.89 2.48-1.809 5.045-.061 6.885.559.695 2.237 3.867 2.687 5.037-.007.396.021.84.057 1.389.037.57.119 1.848.043 2.398zm56.238-16.781c-4.038 17.723-19.536 30.102-37.689 30.102a38.948 38.948 0 0 1-18.21-4.534c2.664-2.342 4.908-5.862 4.942-5.918.858-1.449.813-3.336.662-5.654-.023-.373-.051-.691-.046-.9-.003.145-.03.262-.05.35.469-2.09-2.201-6.559-3.525-8.559.138-.504.405-1.25.599-1.791.34-.947.691-1.928.904-2.867.799-3.48-2.504-5.916-4.916-7.695-.674-.498-1.438-1.063-1.755-1.396-1.134-1.197-3.006-2.129-5.685-.332.052-.443.122-.9.178-1.26a33.02 33.02 0 0 0 .243-1.795c.327-3.324-3.154-5.951-10.331-7.819 3.949-12.813 14.042-22.408 26.593-25.846-.567 1.226-1.012 2.726-1.218 4.588a60.41 60.41 0 0 1-.41 2.927c-.558 3.526-1.19 7.522 3.915 9.797 2.732 1.218 4.636 1.419 6.166 1.58.611.063 1.131.118 1.657.229.131.835.036 2.366-.008 3.089-.06.959-.127 2.049.189 2.985.403 2.239 2.349 10.419 9.881 15.8-1.021.58-2.284 1.145-3.347 1.348-.64.123-1.298.205-1.935.285-2.675.334-6.34.793-7.882 5.051-.697 1.906-.242 3.301.263 4.135 1.246 2.063 3.728 2.395 5.369 2.613.253.035.605.082.831.123 1.11.809 4.399 2.971 7.823 2.971 1.576 0 3.181-.459 4.614-1.719.585-.428 3.041-.398 4.36-.383 2.749.035 5.347.066 7.039-1.645.829-.838 1.27-1.979 1.241-3.215-.048-1.896 2.234-3.252 5.999-5.256 1.409-.751 2.819-1.565 4.109-2.532a38.116 38.116 0 0 1-.57 3.143zm-6.356-5.908c-3.824 2.037-8.509 4.533-9.114 9.391-.677.043-1.589.031-2.271.023-2.895-.037-6.176-.078-8.387 1.867-.828.723-3.626-.545-5.114-1.709-.618-.482-1.327-.729-2.06-.883.25-.037.533-.074.853-.115.697-.088 1.488-.186 2.32-.346 2.631-.504 9.171-3.238 9.739-7.012.241-1.596-.526-3.074-2.009-3.861-8.217-4.34-9.483-13.121-9.532-13.48l-.096-.769c.009-.178.021-.369.031-.534.168-2.722.48-7.789-3.588-9.032-1.318-.401-2.436-.519-3.421-.623-1.335-.141-2.487-.262-4.352-1.093-.562-.25-.713-.399-.712-.396-.129-.394.098-1.829.28-2.983.147-.93.314-1.984.448-3.204.368-3.322 1.652-4.286 3.139-5.402.398-.3.811-.608 1.205-.964.084-.076.15-.164.224-.247.335-.009.67-.021 1.007-.021 1.577 0 3.158.112 4.733.31 2.214 5.847 6.735 12.466 10.872 18.509 2.894 4.229 6.856 10.017 6.945 11.688v.004a3.004 3.004 0 0 0 3 2.994 2.995 2.995 0 0 0 2.999-2.947l.001-.051c.076-1.441 3.03-5.938 5.698-9.859a38.421 38.421 0 0 1 4.331 14.528c-.562 2.504-3.215 4.113-7.169 6.217z" fill="#ffffff" data-original="#000000" class="" opacity="1"></path><path d="M109.618 38.354c0-7.479-6.086-13.564-13.566-13.564-7.479 0-13.564 6.085-13.564 13.564s6.085 13.564 13.564 13.564c7.48 0 13.566-6.085 13.566-13.564zm-21.131 0c0-4.171 3.394-7.564 7.564-7.564 4.172 0 7.566 3.394 7.566 7.564s-3.395 7.564-7.566 7.564c-4.171 0-7.564-3.394-7.564-7.564z" fill="#ffffff" data-original="#000000" class="" opacity="1"></path></g></svg>