<?xml version="1.0" encoding="UTF-8"?>
<svg viewBox="0 0 24 24" xmlns="http://www.w3.org/2000/svg"><g fill="none" fill-rule="evenodd"><path d="M16 22v-2h4v-4h2v4c0 1.105-.814 2-1.818 2H16Zm-8 0H3.818C2.814 22 2 21.105 2 20v-4h2v4h4v2Zm8-20h4.182C21.186 2 22 2.895 22 4v4h-2V4h-4V2ZM8 2v2H4v4H2V4c0-1.105.814-2 1.818-2H8Z" fill="#ffffff" class="fill-000000"></path><path d="M8 14c0 1 1 3 4 3s4-2 4-3m-4.003-7c0 2.667.001 4.333.003 5 0 .5-.5 1-1 1h-.707" stroke="#ffffff" stroke-linejoin="round" stroke-width="2" class="stroke-000000"></path><path fill="#ffffff" d="M15 7h2v3h-2zM7 7h2v3H7z" class="fill-000000"></path></g></svg>